<?xml version="1.0" encoding="utf-8"?>
<!DOCTYPE svg PUBLIC "-//W3C//DTD SVG 1.1//EN" "http://www.w3.org/Graphics/SVG/1.1/DTD/svg11.dtd">
<svg version="1.1" id="oracle" xmlns:svg="http://www.w3.org/2000/svg"
	 xmlns="http://www.w3.org/2000/svg" xmlns:xlink="http://www.w3.org/1999/xlink" x="0px" y="0px" width="136px" height="17px"
	 viewBox="263.42 38.57 136 17" enable-background="new 263.42 38.57 136 17" xml:space="preserve">
<path id="logo" fill="#000000" d="M320.07,49.63h8.64l-4.57-7.35l-8.38,13.29h-3.82l10.2-15.96c0.44-0.64,1.18-1.04,2-1.04
	c0.79,0,1.53,0.38,1.96,1.01l10.24,15.99h-3.82l-1.8-2.97h-8.75L320.07,49.63z M359.7,52.6V38.74h-3.24v15.22
	c0,0.42,0.16,0.82,0.47,1.13c0.31,0.31,0.72,0.48,1.18,0.48h14.77l1.91-2.97H359.7z M306.13,50.12c3.14,0,5.7-2.54,5.7-5.68
	c0-3.14-2.55-5.7-5.7-5.7h-14.17v16.84h3.24V41.71h10.71c1.5,0,2.71,1.22,2.71,2.73s-1.21,2.73-2.71,2.73l-9.13-0.01l9.67,8.42h4.7
	l-6.5-5.46H306.13z M272.04,55.57c-4.65,0-8.42-3.76-8.42-8.41c0-4.65,3.77-8.42,8.42-8.42h9.78c4.65,0,8.42,3.78,8.42,8.42
	c0,4.65-3.77,8.41-8.42,8.41H272.04z M281.61,52.6c3.01,0,5.45-2.43,5.45-5.44c0-3.01-2.44-5.46-5.45-5.46h-9.35
	c-3.01,0-5.45,2.45-5.45,5.46c0,3.01,2.44,5.44,5.45,5.44H281.61z M343.1,55.57c-4.65,0-8.42-3.76-8.42-8.41
	c0-4.65,3.78-8.42,8.42-8.42h11.62l-1.89,2.97h-9.51c-3.01,0-5.46,2.45-5.46,5.46c0,3.01,2.45,5.44,5.46,5.44h11.68l-1.91,2.97
	L343.1,55.57L343.1,55.57z M382.69,52.6c-2.49,0-4.59-1.67-5.24-3.96h13.84l1.91-2.97h-15.75c0.64-2.28,2.75-3.96,5.24-3.96h9.5
	l1.92-2.97h-11.64c-4.65,0-8.42,3.78-8.42,8.42s3.78,8.41,8.42,8.41h9.98l1.91-2.97L382.69,52.6"/>
<path id="reg" fill="#000000" d="M395.85,40.52c0-0.82,0.66-1.48,1.48-1.48c0.83,0,1.49,0.66,1.49,1.48c0,0.83-0.66,1.49-1.49,1.49
	C396.51,42.02,395.85,41.36,395.85,40.52z M397.33,42.43c1.05,0,1.89-0.85,1.89-1.89s-0.85-1.89-1.89-1.89
	c-1.03,0-1.88,0.85-1.88,1.89S396.29,42.43,397.33,42.43z M397.15,39.41c0.29,0,0.42,0.01,0.55,0.07c0.38,0.12,0.42,0.46,0.42,0.59
	c0,0.03,0,0.09-0.03,0.17c-0.01,0.08-0.07,0.24-0.25,0.36c-0.03,0.01-0.04,0.03-0.09,0.05l0.48,0.87h-0.47l-0.43-0.81h-0.3v0.81
	h-0.42v-2.12H397.15z M397.3,40.38c0.13-0.01,0.27-0.01,0.35-0.13c0.04-0.05,0.05-0.11,0.05-0.19c0-0.11-0.07-0.2-0.16-0.25
	c-0.09-0.04-0.19-0.04-0.39-0.04h-0.12v0.62H397.3"/>
</svg>
