<svg id="Layer_1" xmlns="http://www.w3.org/2000/svg" width="420" height="420" viewBox="0 0 420 420"><style>.st0{fill-rule:evenodd;clip-rule:evenodd;fill:#E9ECEF;}</style><path class="st0" d="M176.4 66.5c-51.8 0-93.7 42.1-93.7 94s42 94 93.7 94 93.7-42.1 93.7-94-41.9-94-93.7-94zm0 176c-45.2 0-81.8-36.7-81.8-82s36.6-82 81.8-82 81.8 36.7 81.8 82-36.6 82-81.8 82zm114.7 6c18.6-24.4 29.9-54.9 29.9-88 0-80.1-64.7-145-144.6-145S31.8 80.4 31.8 160.5s64.7 145 144.6 145c20 0 39-4.1 56.3-11.4.7-.3.5.4.5.4l106.7 107 51.9-52s-101-100.6-100.7-101zm-54.8 33s-.5-1.2-1-2c-1.2.6-.9.7-2.1 1.3-17.2 8.2-36.4 12.7-56.7 12.7-73.3 0-132.6-59.5-132.6-133s59.4-133 132.6-133 132.6 59.5 132.6 133c0 32.2-11.4 61.7-30.4 84.7l-3.3 3.9 100.5 100.5-35.9 36-103.7-104.1z"/></svg>